<mxfile host="app.diagrams.net" agent="Mozilla/5.0 (Windows NT 10.0; Win64; x64) AppleWebKit/537.36 (KHTML, like Gecko) Chrome/131.0.0.0 Safari/537.36" version="26.0.4">
  <diagram id="C5RBs43oDa-KdzZeNtuy" name="Page-1">
    <mxGraphModel dx="1613" dy="663" grid="1" gridSize="10" guides="1" tooltips="1" connect="1" arrows="1" fold="1" page="1" pageScale="1" pageWidth="827" pageHeight="1169" math="0" shadow="0">
      <root>
        <mxCell id="WIyWlLk6GJQsqaUBKTNV-0" />
        <mxCell id="WIyWlLk6GJQsqaUBKTNV-1" parent="WIyWlLk6GJQsqaUBKTNV-0" />
        <mxCell id="bYhb3VTjQIuexV1WuUlq-2" style="edgeStyle=orthogonalEdgeStyle;rounded=0;orthogonalLoop=1;jettySize=auto;html=1;exitX=0.5;exitY=1;exitDx=0;exitDy=0;exitPerimeter=0;entryX=0.5;entryY=0;entryDx=0;entryDy=0;" edge="1" parent="WIyWlLk6GJQsqaUBKTNV-1" source="bYhb3VTjQIuexV1WuUlq-0" target="bYhb3VTjQIuexV1WuUlq-1">
          <mxGeometry relative="1" as="geometry" />
        </mxCell>
        <mxCell id="bYhb3VTjQIuexV1WuUlq-0" value="START" style="strokeWidth=2;html=1;shape=mxgraph.flowchart.start_1;whiteSpace=wrap;" vertex="1" parent="WIyWlLk6GJQsqaUBKTNV-1">
          <mxGeometry x="350" y="30" width="100" height="60" as="geometry" />
        </mxCell>
        <mxCell id="bYhb3VTjQIuexV1WuUlq-1" value="READ PIN" style="shape=parallelogram;html=1;strokeWidth=2;perimeter=parallelogramPerimeter;whiteSpace=wrap;rounded=1;arcSize=12;size=0.23;" vertex="1" parent="WIyWlLk6GJQsqaUBKTNV-1">
          <mxGeometry x="275" y="150" width="250" height="60" as="geometry" />
        </mxCell>
        <mxCell id="bYhb3VTjQIuexV1WuUlq-5" style="edgeStyle=orthogonalEdgeStyle;rounded=0;orthogonalLoop=1;jettySize=auto;html=1;exitX=0.5;exitY=1;exitDx=0;exitDy=0;exitPerimeter=0;" edge="1" parent="WIyWlLk6GJQsqaUBKTNV-1" source="bYhb3VTjQIuexV1WuUlq-3" target="bYhb3VTjQIuexV1WuUlq-4">
          <mxGeometry relative="1" as="geometry" />
        </mxCell>
        <mxCell id="bYhb3VTjQIuexV1WuUlq-6" value="YES" style="edgeLabel;html=1;align=center;verticalAlign=middle;resizable=0;points=[];" vertex="1" connectable="0" parent="bYhb3VTjQIuexV1WuUlq-5">
          <mxGeometry x="-0.104" y="-4" relative="1" as="geometry">
            <mxPoint as="offset" />
          </mxGeometry>
        </mxCell>
        <mxCell id="bYhb3VTjQIuexV1WuUlq-9" style="edgeStyle=orthogonalEdgeStyle;rounded=0;orthogonalLoop=1;jettySize=auto;html=1;exitX=1;exitY=0.5;exitDx=0;exitDy=0;exitPerimeter=0;entryX=0;entryY=0.5;entryDx=0;entryDy=0;" edge="1" parent="WIyWlLk6GJQsqaUBKTNV-1" source="bYhb3VTjQIuexV1WuUlq-3" target="bYhb3VTjQIuexV1WuUlq-8">
          <mxGeometry relative="1" as="geometry" />
        </mxCell>
        <mxCell id="bYhb3VTjQIuexV1WuUlq-10" value="NO" style="edgeLabel;html=1;align=center;verticalAlign=middle;resizable=0;points=[];" vertex="1" connectable="0" parent="bYhb3VTjQIuexV1WuUlq-9">
          <mxGeometry x="-0.2019" y="2" relative="1" as="geometry">
            <mxPoint as="offset" />
          </mxGeometry>
        </mxCell>
        <mxCell id="bYhb3VTjQIuexV1WuUlq-3" value="PIN = 1234" style="strokeWidth=2;html=1;shape=mxgraph.flowchart.decision;whiteSpace=wrap;" vertex="1" parent="WIyWlLk6GJQsqaUBKTNV-1">
          <mxGeometry x="330" y="270" width="140" height="130" as="geometry" />
        </mxCell>
        <mxCell id="bYhb3VTjQIuexV1WuUlq-4" value="PRINT &quot; YOUR BALANCE IS : 7500 &quot;" style="shape=parallelogram;html=1;strokeWidth=2;perimeter=parallelogramPerimeter;whiteSpace=wrap;rounded=1;arcSize=12;size=0.23;" vertex="1" parent="WIyWlLk6GJQsqaUBKTNV-1">
          <mxGeometry x="237.5" y="500" width="325" height="60" as="geometry" />
        </mxCell>
        <mxCell id="bYhb3VTjQIuexV1WuUlq-7" style="edgeStyle=orthogonalEdgeStyle;rounded=0;orthogonalLoop=1;jettySize=auto;html=1;exitX=0.5;exitY=1;exitDx=0;exitDy=0;entryX=0.5;entryY=0;entryDx=0;entryDy=0;entryPerimeter=0;" edge="1" parent="WIyWlLk6GJQsqaUBKTNV-1" source="bYhb3VTjQIuexV1WuUlq-1" target="bYhb3VTjQIuexV1WuUlq-3">
          <mxGeometry relative="1" as="geometry" />
        </mxCell>
        <mxCell id="bYhb3VTjQIuexV1WuUlq-11" style="edgeStyle=orthogonalEdgeStyle;rounded=0;orthogonalLoop=1;jettySize=auto;html=1;exitX=0.5;exitY=0;exitDx=0;exitDy=0;entryX=1;entryY=0.5;entryDx=0;entryDy=0;" edge="1" parent="WIyWlLk6GJQsqaUBKTNV-1" source="bYhb3VTjQIuexV1WuUlq-8" target="bYhb3VTjQIuexV1WuUlq-1">
          <mxGeometry relative="1" as="geometry">
            <Array as="points">
              <mxPoint x="753" y="180" />
            </Array>
          </mxGeometry>
        </mxCell>
        <mxCell id="bYhb3VTjQIuexV1WuUlq-8" value="PRINT &quot; WRONG PIN , TRY AGAIN &quot;" style="shape=parallelogram;html=1;strokeWidth=2;perimeter=parallelogramPerimeter;whiteSpace=wrap;rounded=1;arcSize=12;size=0.23;" vertex="1" parent="WIyWlLk6GJQsqaUBKTNV-1">
          <mxGeometry x="590" y="305" width="325" height="60" as="geometry" />
        </mxCell>
      </root>
    </mxGraphModel>
  </diagram>
</mxfile>
